<svg id="Layer_1" data-name="Layer 1" xmlns="http://www.w3.org/2000/svg" xmlns:xlink="http://www.w3.org/1999/xlink" viewBox="0 0 45 45"><defs><style>.cls-1{fill:none;}.cls-2{clip-path:url(#clip-path);}</style><clipPath id="clip-path"><rect class="cls-1" x="2.5" y="2.5" width="40" height="40"/></clipPath></defs><title>3</title><path d="M40.5,4.5v36H4.5V4.5h36m2-2H2.5v40h40V2.5Z"/><g class="cls-2"><path d="M44.4,35.33,54.08,45,44.4,54.67,34.73,45l9.67-9.67m0-2.83L31.9,45,44.4,57.5,56.9,45,44.4,32.5Z"/><path d="M44.4,25.33,64.08,45,44.4,64.67,24.73,45,44.4,25.33m0-2.83L21.9,45,44.4,67.5,66.9,45,44.4,22.5Z"/><path d="M44.4,25.33,64.08,45,44.4,64.67,24.73,45,44.4,25.33m0-2.83L21.9,45,44.4,67.5,66.9,45,44.4,22.5Z"/><path d="M44.4,15.33,74.08,45,44.4,74.67,14.73,45,44.4,15.33m0-2.83L11.9,45,44.4,77.5,76.9,45,44.4,12.5Z"/><path d="M44.4,5.33,84.08,45,44.4,84.67,4.73,45,44.4,5.33m0-2.83L1.9,45,44.4,87.5,86.9,45,44.4,2.5Z"/><path d="M44.4-4.67,94.08,45,44.4,94.67-5.27,45,44.4-4.67m0-2.83L-8.1,45,44.4,97.5,96.9,45,44.4-7.5Z"/><path d="M45-14.08,104.08,45,45,104.08-14.08,45,45-14.08m0-2.82L-16.9,45,45,106.9,106.9,45,45-16.9Z"/><path d="M45-24.08,114.08,45,45,114.08-24.08,45,45-24.08m0-2.82L-26.9,45,45,116.9,116.9,45,45-26.9Z"/></g></svg>