<svg id="Layer_1" data-name="Layer 1" xmlns="http://www.w3.org/2000/svg" xmlns:xlink="http://www.w3.org/1999/xlink" viewBox="0 0 45 45"><defs><style>.cls-1{fill:none;}.cls-2{clip-path:url(#clip-path);}</style><clipPath id="clip-path"><polygon class="cls-1" points="87.5 -97.5 2.5 -97.5 2.5 -69.81 2.5 -57.5 2.5 -12.5 42.5 -12.5 42.5 -57.5 87.5 -57.5 87.5 -97.5"/></clipPath></defs><title>1 copy 3</title><path d="M85.5,4.5v36h-45v45H4.5V4.5h81m2-2H2.5v85h40v-45h45V2.5Z"/><g class="cls-2"><path d="M45-114.08,104.08-55,45,4.08-14.08-55,45-114.08m0-2.82L-16.9-55,45,6.9,106.9-55,45-116.9Z"/><path d="M45-124.08,114.08-55,45,14.08-24.08-55,45-124.08m0-2.82L-26.9-55,45,16.9,116.9-55,45-126.9Z"/></g><path d="M22.5,14.37a8.13,8.13,0,1,1-8.13,8.13,8.14,8.14,0,0,1,8.13-8.13m0-2A10.13,10.13,0,1,0,32.63,22.5,10.14,10.14,0,0,0,22.5,12.37Z"/><path d="M22.5,36.87A8.13,8.13,0,1,1,14.37,45a8.14,8.14,0,0,1,8.13-8.13m0-2A10.13,10.13,0,1,0,32.63,45,10.14,10.14,0,0,0,22.5,34.87Z"/><path d="M45,14.38a8.13,8.13,0,1,1-8.13,8.12A8.13,8.13,0,0,1,45,14.38m0-2A10.13,10.13,0,1,0,55.13,22.5,10.13,10.13,0,0,0,45,12.38Z"/></svg>