<svg id="Layer_1" data-name="Layer 1" xmlns="http://www.w3.org/2000/svg" xmlns:xlink="http://www.w3.org/1999/xlink" viewBox="0 0 45 45"><defs><style>.cls-1,.cls-2{fill:none;}.cls-2{stroke:#000;stroke-miterlimit:10;stroke-width:2px;}.cls-3{clip-path:url(#clip-path);}</style><clipPath id="clip-path"><rect class="cls-1" x="57.5" y="2.5" width="40" height="40"/></clipPath></defs><title>2</title><path d="M40.5,4.5v36H4.5V4.5h36m2-2H2.5v40h40V2.5Z"/><line class="cls-2" x1="22.5" y1="37.5" x2="22.5" y2="7.5"/><line class="cls-2" x1="7.5" y1="22.5" x2="37.5" y2="22.5"/><g class="cls-3"><path d="M100-14.08,159.08,45,100,104.08,40.92,45,100-14.08m0-2.82L38.1,45,100,106.9,161.9,45,100-16.9Z"/><path d="M100-24.08,169.08,45,100,114.08,30.92,45,100-24.08m0-2.82L28.1,45,100,116.9,171.9,45,100-26.9Z"/></g></svg>