<svg id="Layer_1" data-name="Layer 1" xmlns="http://www.w3.org/2000/svg" xmlns:xlink="http://www.w3.org/1999/xlink" viewBox="0 0 45 45"><defs><style>.cls-1{fill:none;}.cls-2{clip-path:url(#clip-path);}</style><clipPath id="clip-path"><rect class="cls-1" x="57.5" y="-52.5" width="40" height="40"/></clipPath></defs><title>4</title><path d="M40.5,4.5v36H4.5V4.5h36m2-2H2.5v40h40V2.5Z"/><g class="cls-2"><path d="M100-69.08,159.08-10,100,49.08,40.92-10,100-69.08m0-2.82L38.1-10,100,51.9,161.9-10,100-71.9Z"/><path d="M100-79.08,169.08-10,100,59.08,30.92-10,100-79.08m0-2.82L28.1-10,100,61.9,171.9-10,100-81.9Z"/></g><path d="M33,12.12v21H12v-21H33m2-2H10v25H35v-25Z"/><path d="M25.5,19.62v6h-6v-6h6m2-2h-10v10h10v-10Z"/></svg>