<svg id="Layer_1" data-name="Layer 1" xmlns="http://www.w3.org/2000/svg" xmlns:xlink="http://www.w3.org/1999/xlink" viewBox="0 0 45 45"><defs><style>.cls-1{fill:none;}.cls-2{clip-path:url(#clip-path);}</style><clipPath id="clip-path"><rect class="cls-1" x="2.5" y="-52.5" width="40" height="40"/></clipPath></defs><title>5</title><path d="M40.5,4.5v36H4.5V4.5h36m2-2H2.5v40h40V2.5Z"/><path d="M22.37,14.5a8.13,8.13,0,1,1-8.12,8.12,8.13,8.13,0,0,1,8.12-8.12m0-2A10.13,10.13,0,1,0,32.5,22.62,10.12,10.12,0,0,0,22.37,12.5Z"/><g class="cls-2"><path d="M44.4-19.67,54.08-10,44.4-.33,34.73-10l9.67-9.67m0-2.83L31.9-10,44.4,2.5,56.9-10,44.4-22.5Z"/><path d="M44.4-29.67,64.08-10,44.4,9.67,24.73-10,44.4-29.67m0-2.83L21.9-10,44.4,12.5,66.9-10,44.4-32.5Z"/><path d="M44.4-29.67,64.08-10,44.4,9.67,24.73-10,44.4-29.67m0-2.83L21.9-10,44.4,12.5,66.9-10,44.4-32.5Z"/><path d="M44.4-39.67,74.08-10,44.4,19.67,14.73-10,44.4-39.67m0-2.83L11.9-10,44.4,22.5,76.9-10,44.4-42.5Z"/><path d="M44.4-49.67,84.08-10,44.4,29.67,4.73-10,44.4-49.67m0-2.83L1.9-10,44.4,32.5,86.9-10,44.4-52.5Z"/><path d="M44.4-59.67,94.08-10,44.4,39.67-5.27-10,44.4-59.67m0-2.83L-8.1-10,44.4,42.5,96.9-10,44.4-62.5Z"/><path d="M45-69.08,104.08-10,45,49.08-14.08-10,45-69.08m0-2.82L-16.9-10,45,51.9,106.9-10,45-71.9Z"/><path d="M45-79.08,114.08-10,45,59.08-24.08-10,45-79.08m0-2.82L-26.9-10,45,61.9,116.9-10,45-81.9Z"/></g></svg>