<svg id="Layer_1" data-name="Layer 1" xmlns="http://www.w3.org/2000/svg" viewBox="0 0 45 45"><title>1 copy</title><path d="M85.5,4.5v81H4.5V4.5h81m2-2H2.5v85h85V2.5Z"/><path d="M14.62,6.5A8.13,8.13,0,1,1,6.5,14.62,8.13,8.13,0,0,1,14.62,6.5m0-2A10.13,10.13,0,1,0,24.75,14.62,10.12,10.12,0,0,0,14.62,4.5Z"/><path d="M34.88,6.5a8.13,8.13,0,1,1-8.13,8.12A8.13,8.13,0,0,1,34.88,6.5m0-2A10.13,10.13,0,1,0,45,14.62,10.12,10.12,0,0,0,34.88,4.5Z"/><path d="M14.62,26.75A8.13,8.13,0,1,1,6.5,34.87a8.13,8.13,0,0,1,8.12-8.12m0-2A10.13,10.13,0,1,0,24.75,34.87,10.12,10.12,0,0,0,14.62,24.75Z"/><path d="M34.88,26.75a8.13,8.13,0,1,1-8.13,8.12,8.13,8.13,0,0,1,8.13-8.12m0-2A10.13,10.13,0,1,0,45,34.87,10.12,10.12,0,0,0,34.88,24.75Z"/><path d="M14.62,47A8.13,8.13,0,1,1,6.5,55.12,8.13,8.13,0,0,1,14.62,47m0-2A10.13,10.13,0,1,0,24.75,55.12,10.12,10.12,0,0,0,14.62,45Z"/><path d="M34.88,47a8.13,8.13,0,1,1-8.13,8.12A8.13,8.13,0,0,1,34.88,47m0-2A10.13,10.13,0,1,0,45,55.12,10.12,10.12,0,0,0,34.88,45Z"/></svg>