<svg id="Layer_1" data-name="Layer 1" xmlns="http://www.w3.org/2000/svg" xmlns:xlink="http://www.w3.org/1999/xlink" viewBox="0 0 45 45"><defs><style>.cls-1,.cls-3{fill:none;}.cls-2{clip-path:url(#clip-path);}.cls-3{stroke:#000;stroke-miterlimit:10;stroke-width:2px;}</style><clipPath id="clip-path"><polygon class="cls-1" points="142.5 -97.5 57.5 -97.5 57.5 -69.81 57.5 -57.5 57.5 -12.5 97.5 -12.5 97.5 -57.5 142.5 -57.5 142.5 -97.5"/></clipPath></defs><title>2 copy 2</title><path d="M40.5,4.5v36h-45v45h-36V4.5h81m2-2h-85v85h40v-45h45V2.5Z"/><path d="M30.5,14.5v16h-45v45h-16v-61h61m2-2h-65v65h20v-45h45v-20Z"/><g class="cls-2"><path d="M100-114.08,159.08-55,100,4.08,40.92-55,100-114.08m0-2.82L38.1-55,100,6.9,161.9-55,100-116.9Z"/><path d="M100-124.08,169.08-55,100,14.08,30.92-55,100-124.08m0-2.82L28.1-55,100,16.9,171.9-55,100-126.9Z"/></g><polyline class="cls-3" points="-22.5 67.5 -22.5 22.5 22.5 22.5"/></svg>