<svg id="Layer_1" data-name="Layer 1" xmlns="http://www.w3.org/2000/svg" viewBox="0 0 45 45"><title>4 copy</title><path d="M40.5-40.5v81h-81v-81h81m2-2h-85v85h85v-85Z"/><path d="M10.13-18.25a8.13,8.13,0,0,1,8.12,8.12A8.13,8.13,0,0,1,10.13-2,8.13,8.13,0,0,1,2-10.13a8.13,8.13,0,0,1,8.13-8.12m0-2A10.12,10.12,0,0,0,0-10.13,10.12,10.12,0,0,0,10.13,0,10.12,10.12,0,0,0,20.25-10.13,10.12,10.12,0,0,0,10.13-20.25Z"/><path d="M30.38-18.25a8.13,8.13,0,0,1,8.12,8.12A8.13,8.13,0,0,1,30.38-2a8.13,8.13,0,0,1-8.13-8.13,8.13,8.13,0,0,1,8.13-8.12m0-2A10.12,10.12,0,0,0,20.25-10.13,10.12,10.12,0,0,0,30.38,0,10.12,10.12,0,0,0,40.5-10.13,10.12,10.12,0,0,0,30.38-20.25Z"/><path d="M10.13,2A8.13,8.13,0,1,1,2,10.12,8.13,8.13,0,0,1,10.13,2m0-2A10.13,10.13,0,1,0,20.25,10.12,10.12,10.12,0,0,0,10.13,0Z"/><path d="M30.38,2a8.13,8.13,0,1,1-8.13,8.12A8.13,8.13,0,0,1,30.38,2m0-2A10.13,10.13,0,1,0,40.5,10.12,10.12,10.12,0,0,0,30.38,0Z"/><path d="M10.13,22.25A8.13,8.13,0,1,1,2,30.37a8.13,8.13,0,0,1,8.13-8.12m0-2A10.13,10.13,0,1,0,20.25,30.37,10.12,10.12,0,0,0,10.13,20.25Z"/><path d="M30.38,22.25a8.13,8.13,0,1,1-8.13,8.12,8.13,8.13,0,0,1,8.13-8.12m0-2A10.13,10.13,0,1,0,40.5,30.37,10.12,10.12,0,0,0,30.38,20.25Z"/></svg>