<svg id="Layer_1" data-name="Layer 1" xmlns="http://www.w3.org/2000/svg" xmlns:xlink="http://www.w3.org/1999/xlink" viewBox="0 0 45 45"><defs><style>.cls-1{fill:none;}.cls-2{clip-path:url(#clip-path);}</style><clipPath id="clip-path"><rect class="cls-1" x="57.5" y="-42.5" width="85" height="85"/></clipPath></defs><title>4</title><path d="M40.5-40.5v81h-81v-81h81m2-2h-85v85h85v-85Z"/><path d="M30.5-30.5v61h-61v-61h61m2-2h-65v65h65v-65Z"/><path d="M20.5-20.5v41h-41v-41h41m2-2h-45v45h45v-45Z"/><path d="M10.5-10.5v21h-21v-21h21m2-2h-25v25h25v-25Z"/><g class="cls-2"><path d="M100-59.08,159.08,0,100,59.08,40.92,0,100-59.08m0-2.82L38.1,0,100,61.9,161.9,0,100-61.9Z"/><path d="M100-69.08,169.08,0,100,69.08,30.92,0,100-69.08m0-2.82L28.1,0,100,71.9,171.9,0,100-71.9Z"/></g></svg>