<svg id="Layer_1" data-name="Layer 1" xmlns="http://www.w3.org/2000/svg" xmlns:xlink="http://www.w3.org/1999/xlink" viewBox="0 0 45 45"><defs><style>.cls-1{fill:none;}.cls-2{clip-path:url(#clip-path);}</style><clipPath id="clip-path"><rect class="cls-1" x="57.5" y="2.5" width="85" height="85"/></clipPath></defs><title>2</title><path d="M40.5,4.5v81h-81V4.5h81m2-2h-85v85h85V2.5Z"/><path d="M30.5,14.5v61h-61v-61h61m2-2h-65v65h65v-65Z"/><path d="M20.5,24.5v41h-41v-41h41m2-2h-45v45h45v-45Z"/><path d="M10.5,34.5v21h-21v-21h21m2-2h-25v25h25v-25Z"/><g class="cls-2"><path d="M100-14.08,159.08,45,100,104.08,40.92,45,100-14.08m0-2.82L38.1,45,100,106.9,161.9,45,100-16.9Z"/><path d="M100-24.08,169.08,45,100,114.08,30.92,45,100-24.08m0-2.82L28.1,45,100,116.9,171.9,45,100-26.9Z"/></g></svg>