<svg id="Layer_1" data-name="Layer 1" xmlns="http://www.w3.org/2000/svg" xmlns:xlink="http://www.w3.org/1999/xlink" viewBox="0 0 45 45"><defs><style>.cls-1{fill:none;}.cls-2{clip-path:url(#clip-path);}</style><clipPath id="clip-path"><rect class="cls-1" x="57.5" y="-97.5" width="85" height="85"/></clipPath></defs><title>2 copy</title><path d="M40.5,4.5v81h-81V4.5h81m2-2h-85v85h85V2.5Z"/><g class="cls-2"><path d="M100-114.08,159.08-55,100,4.08,40.92-55,100-114.08m0-2.82L38.1-55,100,6.9,161.9-55,100-116.9Z"/><path d="M100-124.08,169.08-55,100,14.08,30.92-55,100-124.08m0-2.82L28.1-55,100,16.9,171.9-55,100-126.9Z"/></g><path d="M10.13,6.5A8.13,8.13,0,1,1,2,14.62,8.13,8.13,0,0,1,10.13,6.5m0-2A10.13,10.13,0,1,0,20.25,14.62,10.12,10.12,0,0,0,10.13,4.5Z"/><path d="M30.38,6.5a8.13,8.13,0,1,1-8.13,8.12A8.13,8.13,0,0,1,30.38,6.5m0-2A10.13,10.13,0,1,0,40.5,14.62,10.12,10.12,0,0,0,30.38,4.5Z"/><path d="M10.13,26.75A8.13,8.13,0,1,1,2,34.87a8.13,8.13,0,0,1,8.13-8.12m0-2A10.13,10.13,0,1,0,20.25,34.87,10.12,10.12,0,0,0,10.13,24.75Z"/><path d="M30.38,26.75a8.13,8.13,0,1,1-8.13,8.12,8.13,8.13,0,0,1,8.13-8.12m0-2A10.13,10.13,0,1,0,40.5,34.87,10.12,10.12,0,0,0,30.38,24.75Z"/><path d="M10.13,47A8.13,8.13,0,1,1,2,55.12,8.13,8.13,0,0,1,10.13,47m0-2A10.13,10.13,0,1,0,20.25,55.12,10.12,10.12,0,0,0,10.13,45Z"/><path d="M30.38,47a8.13,8.13,0,1,1-8.13,8.12A8.13,8.13,0,0,1,30.38,47m0-2A10.13,10.13,0,1,0,40.5,55.12,10.12,10.12,0,0,0,30.38,45Z"/></svg>