<svg id="Layer_1" data-name="Layer 1" xmlns="http://www.w3.org/2000/svg" xmlns:xlink="http://www.w3.org/1999/xlink" viewBox="0 0 45 45"><defs><style>.cls-1,.cls-3{fill:none;}.cls-2{clip-path:url(#clip-path);}.cls-3{stroke:#000;stroke-miterlimit:10;stroke-width:2px;}</style><clipPath id="clip-path"><polygon class="cls-1" points="142.5 2.5 57.5 2.5 57.5 30.19 57.5 42.5 57.5 87.5 97.5 87.5 97.5 42.5 142.5 42.5 142.5 2.5"/></clipPath></defs><title>2</title><g class="cls-2"><path d="M100-14.08,159.08,45,100,104.08,40.92,45,100-14.08m0-2.82L38.1,45,100,106.9,161.9,45,100-16.9Z"/><path d="M100-24.08,169.08,45,100,114.08,30.92,45,100-24.08m0-2.82L28.1,45,100,116.9,171.9,45,100-26.9Z"/></g><path d="M40.5,4.5v36h-45v45h-36V4.5h81m2-2h-85v85h40v-45h45V2.5Z"/><line class="cls-3" x1="22.5" y1="37.5" x2="22.5" y2="7.5"/><line class="cls-3" x1="7.5" y1="22.5" x2="37.5" y2="22.5"/></svg>