<svg id="Layer_1" data-name="Layer 1" xmlns="http://www.w3.org/2000/svg" xmlns:xlink="http://www.w3.org/1999/xlink" viewBox="0 0 45 45"><defs><style>.cls-1{fill:none;}.cls-2{clip-path:url(#clip-path);}</style><clipPath id="clip-path"><rect class="cls-1" x="-42.5" y="2.5" width="85" height="85"/></clipPath></defs><title>2 copy 2</title><path d="M40.5,4.5v81h-81V4.5h81m2-2h-85v85h85V2.5Z"/><path d="M40.5,4.5v81h-81V4.5h81m2-2h-85v85h85V2.5Z"/><g class="cls-2"><path d="M-.6,35.33,9.08,45-.6,54.67-10.27,45-.6,35.33m0-2.83L-13.1,45-.6,57.5,11.9,45-.6,32.5Z"/><path d="M-.6,25.33,19.08,45-.6,64.67-20.27,45-.6,25.33m0-2.83L-23.1,45-.6,67.5,21.9,45-.6,22.5Z"/><path d="M-.6,25.33,19.08,45-.6,64.67-20.27,45-.6,25.33m0-2.83L-23.1,45-.6,67.5,21.9,45-.6,22.5Z"/><path d="M-.6,15.33,29.08,45-.6,74.67-30.27,45-.6,15.33m0-2.83L-33.1,45-.6,77.5,31.9,45-.6,12.5Z"/><path d="M-.6,5.33,39.08,45-.6,84.67-40.27,45-.6,5.33m0-2.83L-43.1,45-.6,87.5,41.9,45-.6,2.5Z"/><path d="M-.6-4.67,49.08,45-.6,94.67-50.27,45-.6-4.67m0-2.83L-53.1,45-.6,97.5,51.9,45-.6-7.5Z"/><path d="M0-14.08,59.08,45,0,104.08-59.08,45,0-14.08M0-16.9-61.9,45,0,106.9,61.9,45,0-16.9Z"/><path d="M0-24.08,69.08,45,0,114.08-69.08,45,0-24.08M0-26.9-71.9,45,0,116.9,71.9,45,0-26.9Z"/></g></svg>