<svg id="Layer_1" data-name="Layer 1" xmlns="http://www.w3.org/2000/svg" xmlns:xlink="http://www.w3.org/1999/xlink" viewBox="0 0 45 45"><defs><style>.cls-1{fill:none;}.cls-2{clip-path:url(#clip-path);}</style><clipPath id="clip-path"><rect class="cls-1" x="-42.5" y="-42.5" width="85" height="85"/></clipPath></defs><title>4 copy 2</title><path d="M40.5-40.5v81h-81v-81h81m2-2h-85v85h85v-85Z"/><path d="M40.5-40.5v81h-81v-81h81m2-2h-85v85h85v-85Z"/><g class="cls-2"><path d="M-.6-9.67,9.08,0-.6,9.67-10.27,0-.6-9.67m0-2.83L-13.1,0-.6,12.5,11.9,0-.6-12.5Z"/><path d="M-.6-19.67,19.08,0-.6,19.67-20.27,0-.6-19.67m0-2.83L-23.1,0-.6,22.5,21.9,0-.6-22.5Z"/><path d="M-.6-19.67,19.08,0-.6,19.67-20.27,0-.6-19.67m0-2.83L-23.1,0-.6,22.5,21.9,0-.6-22.5Z"/><path d="M-.6-29.67,29.08,0-.6,29.67-30.27,0-.6-29.67m0-2.83L-33.1,0-.6,32.5,31.9,0-.6-32.5Z"/><path d="M-.6-39.67,39.08,0-.6,39.67-40.27,0-.6-39.67m0-2.83L-43.1,0-.6,42.5,41.9,0-.6-42.5Z"/><path d="M-.6-49.67,49.08,0-.6,49.67-50.27,0-.6-49.67m0-2.83L-53.1,0-.6,52.5,51.9,0-.6-52.5Z"/><path d="M0-59.08,59.08,0,0,59.08-59.08,0,0-59.08M0-61.9-61.9,0,0,61.9,61.9,0,0-61.9Z"/><path d="M0-69.08,69.08,0,0,69.08-69.08,0,0-69.08M0-71.9-71.9,0,0,71.9,71.9,0,0-71.9Z"/></g></svg>