<svg id="Layer_1" data-name="Layer 1" xmlns="http://www.w3.org/2000/svg" xmlns:xlink="http://www.w3.org/1999/xlink" viewBox="0 0 45 45"><defs><style>.cls-1,.cls-3{fill:none;}.cls-2{clip-path:url(#clip-path);}.cls-3{stroke:#000;stroke-miterlimit:10;stroke-width:2px;}</style><clipPath id="clip-path"><rect class="cls-1" x="-42.5" y="-97.5" width="85" height="85"/></clipPath></defs><title>2 copy 3</title><path d="M40.5,4.5v81h-81V4.5h81m2-2h-85v85h85V2.5Z"/><g class="cls-2"><path d="M0-114.08,59.08-55,0,4.08-59.08-55,0-114.08m0-2.82L-61.9-55,0,6.9,61.9-55,0-116.9Z"/><path d="M0-124.08,69.08-55,0,14.08-69.08-55,0-124.08m0-2.82L-71.9-55,0,16.9,71.9-55,0-126.9Z"/></g><line class="cls-3" x1="22.5" y1="38.75" x2="22.5" y2="8.75"/><line class="cls-3" x1="7.5" y1="23.75" x2="37.5" y2="23.75"/></svg>