<svg id="Layer_1" data-name="Layer 1" xmlns="http://www.w3.org/2000/svg" xmlns:xlink="http://www.w3.org/1999/xlink" viewBox="0 0 45 45"><defs><style>.cls-1{fill:none;}.cls-2{clip-path:url(#clip-path);}</style><clipPath id="clip-path"><polygon class="cls-1" points="42.5 -97.5 -42.5 -97.5 -42.5 -69.81 -42.5 -57.5 -42.5 -12.5 -2.5 -12.5 -2.5 -57.5 42.5 -57.5 42.5 -97.5"/></clipPath></defs><title>2 copy 3</title><path d="M40.5,4.5v36h-45v45h-36V4.5h81m2-2h-85v85h40v-45h45V2.5Z"/><g class="cls-2"><path d="M0-114.08,59.08-55,0,4.08-59.08-55,0-114.08m0-2.82L-61.9-55,0,6.9,61.9-55,0-116.9Z"/><path d="M0-124.08,69.08-55,0,14.08-69.08-55,0-124.08m0-2.82L-71.9-55,0,16.9,71.9-55,0-126.9Z"/></g><path d="M0,14.38A8.13,8.13,0,0,1,8.13,22.5,8.14,8.14,0,0,1,0,30.63,8.14,8.14,0,0,1-8.13,22.5,8.13,8.13,0,0,1,0,14.38m0-2A10.13,10.13,0,0,0-10.13,22.5,10.14,10.14,0,0,0,0,32.63,10.14,10.14,0,0,0,10.13,22.5,10.13,10.13,0,0,0,0,12.38Z"/><path d="M22.5,14.37a8.13,8.13,0,1,1-8.12,8.13,8.14,8.14,0,0,1,8.12-8.13m0-2A10.13,10.13,0,1,0,32.63,22.5,10.13,10.13,0,0,0,22.5,12.37Z"/></svg>