<svg id="Layer_1" data-name="Layer 1" xmlns="http://www.w3.org/2000/svg" viewBox="0 0 45 45"><title>3 copy 3</title><path d="M85.5-40.5v36h-45v45H4.5v-81h81m2-2H2.5v85h40v-45h45v-40Z"/><path d="M22.5,14.38a8.13,8.13,0,1,1-8.13,8.12,8.13,8.13,0,0,1,8.13-8.12m0-2A10.13,10.13,0,1,0,32.63,22.5,10.13,10.13,0,0,0,22.5,12.38Z"/><path d="M22.5-8.13A8.14,8.14,0,0,1,30.63,0,8.13,8.13,0,0,1,22.5,8.12,8.13,8.13,0,0,1,14.37,0,8.14,8.14,0,0,1,22.5-8.13m0-2A10.14,10.14,0,0,0,12.37,0,10.13,10.13,0,0,0,22.5,10.12,10.13,10.13,0,0,0,32.63,0,10.14,10.14,0,0,0,22.5-10.13Z"/></svg>