<svg id="Layer_1" data-name="Layer 1" xmlns="http://www.w3.org/2000/svg" xmlns:xlink="http://www.w3.org/1999/xlink" viewBox="0 0 45 45"><defs><style>.cls-1{fill:none;}.cls-2{clip-path:url(#clip-path);}</style><clipPath id="clip-path"><rect class="cls-1" x="2.5" y="-42.5" width="85" height="85"/></clipPath></defs><title>3 copy 2</title><path d="M85.5-40.5v81H4.5v-81h81m2-2H2.5v85h85v-85Z"/><path d="M85.5-40.5v81H4.5v-81h81m2-2H2.5v85h85v-85Z"/><g class="cls-2"><path d="M44.4-9.67,54.08,0,44.4,9.67,34.73,0,44.4-9.67m0-2.83L31.9,0,44.4,12.5,56.9,0,44.4-12.5Z"/><path d="M44.4-19.67,64.08,0,44.4,19.67,24.73,0,44.4-19.67m0-2.83L21.9,0,44.4,22.5,66.9,0,44.4-22.5Z"/><path d="M44.4-19.67,64.08,0,44.4,19.67,24.73,0,44.4-19.67m0-2.83L21.9,0,44.4,22.5,66.9,0,44.4-22.5Z"/><path d="M44.4-29.67,74.08,0,44.4,29.67,14.73,0,44.4-29.67m0-2.83L11.9,0,44.4,32.5,76.9,0,44.4-32.5Z"/><path d="M44.4-39.67,84.08,0,44.4,39.67,4.73,0,44.4-39.67m0-2.83L1.9,0,44.4,42.5,86.9,0,44.4-42.5Z"/><path d="M44.4-49.67,94.08,0,44.4,49.67-5.27,0,44.4-49.67m0-2.83L-8.1,0,44.4,52.5,96.9,0,44.4-52.5Z"/><path d="M45-59.08,104.08,0,45,59.08-14.08,0,45-59.08m0-2.82L-16.9,0,45,61.9,106.9,0,45-61.9Z"/><path d="M45-69.08,114.08,0,45,69.08-24.08,0,45-69.08m0-2.82L-26.9,0,45,71.9,116.9,0,45-71.9Z"/></g></svg>