<svg id="Layer_1" data-name="Layer 1" xmlns="http://www.w3.org/2000/svg" viewBox="0 0 45 45"><title>3 copy</title><path d="M85.5-40.5v81H4.5v-81h81m2-2H2.5v85h85v-85Z"/><path d="M14.62-18.25a8.13,8.13,0,0,1,8.13,8.12A8.13,8.13,0,0,1,14.62-2,8.13,8.13,0,0,1,6.5-10.13a8.13,8.13,0,0,1,8.12-8.12m0-2A10.12,10.12,0,0,0,4.5-10.13,10.12,10.12,0,0,0,14.62,0,10.12,10.12,0,0,0,24.75-10.13,10.12,10.12,0,0,0,14.62-20.25Z"/><path d="M34.88-18.25A8.13,8.13,0,0,1,43-10.13,8.13,8.13,0,0,1,34.88-2a8.13,8.13,0,0,1-8.13-8.13,8.13,8.13,0,0,1,8.13-8.12m0-2A10.12,10.12,0,0,0,24.75-10.13,10.12,10.12,0,0,0,34.88,0,10.12,10.12,0,0,0,45-10.13,10.12,10.12,0,0,0,34.88-20.25Z"/><path d="M14.62,2A8.13,8.13,0,1,1,6.5,10.12,8.13,8.13,0,0,1,14.62,2m0-2A10.13,10.13,0,1,0,24.75,10.12,10.12,10.12,0,0,0,14.62,0Z"/><path d="M34.88,2a8.13,8.13,0,1,1-8.13,8.12A8.13,8.13,0,0,1,34.88,2m0-2A10.13,10.13,0,1,0,45,10.12,10.12,10.12,0,0,0,34.88,0Z"/><path d="M14.62,22.25A8.13,8.13,0,1,1,6.5,30.37a8.13,8.13,0,0,1,8.12-8.12m0-2A10.13,10.13,0,1,0,24.75,30.37,10.12,10.12,0,0,0,14.62,20.25Z"/><path d="M34.88,22.25a8.13,8.13,0,1,1-8.13,8.12,8.13,8.13,0,0,1,8.13-8.12m0-2A10.13,10.13,0,1,0,45,30.37,10.12,10.12,0,0,0,34.88,20.25Z"/></svg>