<svg id="Layer_1" data-name="Layer 1" xmlns="http://www.w3.org/2000/svg" xmlns:xlink="http://www.w3.org/1999/xlink" viewBox="0 0 45 45"><defs><style>.cls-1,.cls-3{fill:none;}.cls-2{clip-path:url(#clip-path);}.cls-3{stroke:#000;stroke-miterlimit:10;stroke-width:2px;}</style><clipPath id="clip-path"><rect class="cls-1" x="2.5" y="-97.5" width="85" height="85"/></clipPath></defs><title>1 copy 3</title><path d="M85.5,4.5v81H4.5V4.5h81m2-2H2.5v85h85V2.5Z"/><g class="cls-2"><path d="M45-114.08,104.08-55,45,4.08-14.08-55,45-114.08m0-2.82L-16.9-55,45,6.9,106.9-55,45-116.9Z"/><path d="M45-124.08,114.08-55,45,14.08-24.08-55,45-124.08m0-2.82L-26.9-55,45,16.9,116.9-55,45-126.9Z"/></g><line class="cls-3" x1="24.5" y1="38.75" x2="24.5" y2="8.75"/><line class="cls-3" x1="9.5" y1="23.75" x2="39.5" y2="23.75"/></svg>